<?xml version="1.0" encoding="utf-8"?>
<!-- Generator: Adobe Illustrator 16.0.0, SVG Export Plug-In . SVG Version: 6.00 Build 0)  -->
<!DOCTYPE svg PUBLIC "-//W3C//DTD SVG 1.1//EN" "http://www.w3.org/Graphics/SVG/1.1/DTD/svg11.dtd">
<svg version="1.1" id="Layer_1" xmlns="http://www.w3.org/2000/svg" xmlns:xlink="http://www.w3.org/1999/xlink" x="0px" y="0px"
	 width="50px" height="20.971px" viewBox="0 0 50 20.971" enable-background="new 0 0 50 20.971" xml:space="preserve">
<g>
	<g>
		<path fill="#4D6655" d="M25.176,11.413l0.342-0.164c0.24,0.354,0.517,0.531,0.831,0.531c0.135,0,0.261-0.025,0.379-0.075
			c0.118-0.051,0.208-0.118,0.271-0.202c0.062-0.084,0.092-0.174,0.092-0.269c0-0.107-0.045-0.213-0.136-0.316
			c-0.126-0.143-0.354-0.314-0.688-0.516c-0.335-0.203-0.543-0.349-0.625-0.439C25.5,9.81,25.43,9.646,25.43,9.47
			c0-0.14,0.042-0.267,0.125-0.382c0.084-0.115,0.202-0.206,0.354-0.271c0.152-0.066,0.317-0.1,0.495-0.1
			c0.189,0,0.366,0.038,0.531,0.112c0.164,0.075,0.339,0.213,0.522,0.414l-0.328,0.199c-0.15-0.16-0.279-0.266-0.385-0.317
			c-0.106-0.051-0.222-0.077-0.348-0.077c-0.161,0-0.293,0.039-0.396,0.118c-0.103,0.079-0.154,0.176-0.154,0.291
			c0,0.07,0.019,0.137,0.055,0.203c0.036,0.065,0.103,0.137,0.199,0.214c0.053,0.041,0.225,0.148,0.518,0.321
			c0.347,0.206,0.585,0.388,0.714,0.549c0.129,0.16,0.193,0.321,0.193,0.483c0,0.233-0.11,0.436-0.331,0.607
			c-0.222,0.173-0.49,0.259-0.807,0.259c-0.244,0-0.465-0.053-0.663-0.157C25.526,11.832,25.344,11.657,25.176,11.413z"/>
	</g>
	<g>
		<path fill="#4D6655" d="M28.536,9.114V8.798h2.197v0.316h-0.895v2.898h-0.408V9.114H28.536z"/>
	</g>
	<g>
		<path fill="#4D6655" d="M31.892,8.798h0.402v1.939c0,0.229,0.005,0.373,0.017,0.43c0.021,0.126,0.066,0.232,0.14,0.317
			c0.072,0.085,0.185,0.157,0.336,0.214c0.15,0.058,0.303,0.086,0.456,0.086c0.133,0,0.26-0.022,0.382-0.067
			s0.224-0.107,0.306-0.188c0.082-0.08,0.143-0.177,0.181-0.291c0.027-0.082,0.041-0.249,0.041-0.502V8.798h0.402v1.94
			c0,0.287-0.035,0.519-0.105,0.696c-0.069,0.177-0.21,0.331-0.421,0.462c-0.21,0.131-0.465,0.197-0.764,0.197
			c-0.324,0-0.603-0.062-0.834-0.186c-0.231-0.124-0.386-0.288-0.464-0.492c-0.05-0.125-0.074-0.351-0.074-0.677V8.798z"/>
	</g>
	<g>
		<path fill="#4D6655" d="M36.099,12.012V8.798h0.833c0.601,0,1.036,0.039,1.308,0.116c0.39,0.109,0.694,0.299,0.914,0.568
			c0.219,0.269,0.329,0.59,0.329,0.963c0,0.322-0.087,0.605-0.261,0.85c-0.174,0.245-0.4,0.425-0.678,0.542
			c-0.277,0.117-0.667,0.175-1.167,0.175H36.099z M36.483,11.708h0.464c0.556,0,0.941-0.028,1.156-0.083
			c0.303-0.079,0.541-0.22,0.714-0.424c0.173-0.205,0.26-0.454,0.26-0.75c0-0.31-0.095-0.574-0.282-0.794s-0.449-0.37-0.784-0.452
			c-0.251-0.061-0.666-0.092-1.243-0.092h-0.284V11.708z"/>
	</g>
	<g>
		<path fill="#4D6655" d="M40.764,8.798h0.402v3.214h-0.402V8.798z"/>
	</g>
	<g>
		<path fill="#4D6655" d="M44.559,8.717c0.609,0,1.118,0.163,1.528,0.487s0.615,0.725,0.615,1.199c0,0.47-0.205,0.87-0.614,1.197
			c-0.409,0.328-0.908,0.492-1.496,0.492c-0.596,0-1.099-0.163-1.509-0.49c-0.41-0.326-0.615-0.721-0.615-1.184
			c0-0.309,0.094-0.595,0.28-0.858c0.188-0.264,0.441-0.47,0.764-0.619C43.835,8.792,44.184,8.717,44.559,8.717z M44.577,9.03
			c-0.298,0-0.579,0.062-0.845,0.186c-0.266,0.124-0.474,0.291-0.623,0.5c-0.149,0.21-0.224,0.444-0.224,0.702
			c0,0.382,0.165,0.704,0.495,0.967c0.331,0.263,0.729,0.395,1.196,0.395c0.312,0,0.6-0.061,0.864-0.181
			c0.265-0.121,0.472-0.287,0.62-0.496c0.148-0.21,0.223-0.443,0.223-0.699c0-0.255-0.074-0.486-0.223-0.692
			s-0.357-0.371-0.627-0.495C45.165,9.092,44.879,9.03,44.577,9.03z"/>
	</g>
	<g>
		<path fill="#4D6655" d="M47.65,11.413l0.342-0.164c0.239,0.354,0.517,0.531,0.831,0.531c0.135,0,0.261-0.025,0.379-0.075
			c0.118-0.051,0.208-0.118,0.27-0.202c0.062-0.084,0.093-0.174,0.093-0.269c0-0.107-0.045-0.213-0.136-0.316
			c-0.126-0.143-0.354-0.314-0.688-0.516c-0.334-0.203-0.543-0.349-0.624-0.439c-0.143-0.151-0.213-0.315-0.213-0.491
			c0-0.14,0.041-0.267,0.125-0.382c0.084-0.115,0.201-0.206,0.354-0.271c0.151-0.066,0.317-0.1,0.495-0.1
			c0.189,0,0.366,0.038,0.531,0.112c0.164,0.075,0.339,0.213,0.522,0.414l-0.328,0.199c-0.15-0.16-0.279-0.266-0.385-0.317
			c-0.106-0.051-0.223-0.077-0.348-0.077c-0.161,0-0.293,0.039-0.396,0.118c-0.104,0.079-0.154,0.176-0.154,0.291
			c0,0.07,0.019,0.137,0.055,0.203c0.036,0.065,0.103,0.137,0.199,0.214c0.052,0.041,0.225,0.148,0.518,0.321
			c0.347,0.206,0.585,0.388,0.714,0.549C49.936,10.904,50,11.065,50,11.227c0,0.233-0.11,0.436-0.332,0.607
			c-0.221,0.173-0.489,0.259-0.806,0.259c-0.244,0-0.465-0.053-0.663-0.157C48.001,11.832,47.818,11.657,47.65,11.413z"/>
	</g>
</g>
<g>
	<path fill="#4D6655" d="M6.847,10.485c0,3.324,4.17,6.021,9.313,6.021c2.888,0,5.464-0.852,7.173-2.185l-2.903-1.57
		c-1.014,0.797-2.549,1.306-4.27,1.306c-3.052,0-5.526-1.599-5.526-3.571s2.475-3.572,5.526-3.572c1.674,0,3.173,0.481,4.187,1.241
		l2.904-1.571c-1.708-1.296-4.25-2.119-7.091-2.119C11.017,4.465,6.847,7.161,6.847,10.485z"/>
	<path fill="#4D6655" d="M16.16,16.618c-5.198,0-9.427-2.751-9.427-6.133c0-3.381,4.229-6.133,9.427-6.133
		c2.756,0,5.365,0.781,7.159,2.142L23.458,6.6l-3.121,1.688l-0.059-0.043c-1.032-0.774-2.533-1.219-4.118-1.219
		c-2.985,0-5.413,1.552-5.413,3.459s2.428,3.459,5.413,3.459c1.633,0,3.163-0.467,4.199-1.282l0.059-0.045l3.12,1.688l-0.136,0.105
		C21.604,15.813,18.964,16.618,16.16,16.618z M16.16,4.578c-5.073,0-9.201,2.65-9.201,5.907c0,3.258,4.128,5.907,9.201,5.907
		c2.684,0,5.21-0.747,6.966-2.055l-2.686-1.452c-1.074,0.816-2.629,1.284-4.28,1.284c-3.109,0-5.639-1.653-5.639-3.685
		c0-2.032,2.529-3.685,5.639-3.685c1.604,0,3.127,0.444,4.195,1.221l2.686-1.452C21.291,5.302,18.796,4.578,16.16,4.578z"/>
</g>
<g>
	<path fill="#4D6655" d="M16.16,18.153c-6.551,0-11.862-3.434-11.862-7.668c0-4.235,5.312-7.667,11.862-7.667
		c3.625,0,6.869,1.052,9.045,2.709l3.211-1.736c-2.944-2.249-7.342-3.678-12.256-3.678c-8.862,0-16.048,4.644-16.048,10.373
		c0,5.729,7.186,10.373,16.048,10.373c4.962,0,9.396-1.456,12.34-3.743l-3.214-1.737C23.11,17.072,19.833,18.153,16.16,18.153z"/>
	<path fill="#4D6655" d="M16.16,20.971C7.249,20.971,0,16.267,0,10.485C0,4.704,7.249,0,16.16,0c4.754,0,9.245,1.349,12.324,3.701
		l0.139,0.106l-3.429,1.854l-0.058-0.044c-2.242-1.707-5.514-2.686-8.977-2.686c-6.479,0-11.75,3.389-11.75,7.555
		c0,4.166,5.271,7.555,11.75,7.555c3.511,0,6.812-1.003,9.057-2.751l0.059-0.045l3.431,1.854l-0.137,0.106
		C25.487,19.598,20.965,20.971,16.16,20.971z M16.16,0.226c-8.786,0-15.935,4.603-15.935,10.26s7.148,10.26,15.935,10.26
		c4.685,0,9.094-1.314,12.133-3.613l-2.996-1.62c-2.282,1.751-5.607,2.754-9.137,2.754c-6.604,0-11.975-3.49-11.975-7.78
		s5.371-7.78,11.975-7.78c3.481,0,6.776,0.979,9.056,2.688l2.992-1.619C25.172,1.518,20.794,0.226,16.16,0.226z"/>
</g>
<g>
	<rect x="14.915" y="8.965" fill="#4D6655" width="2.509" height="3.041"/>
	<path fill="#4D6655" d="M17.505,12.087h-2.671V8.884h2.671V12.087z M14.996,11.925h2.347V9.046h-2.347V11.925z"/>
</g>
</svg>
