<?xml version="1.0" encoding="utf-8"?>
<!-- Generator: Adobe Illustrator 16.0.0, SVG Export Plug-In . SVG Version: 6.00 Build 0)  -->
<!DOCTYPE svg PUBLIC "-//W3C//DTD SVG 1.1//EN" "http://www.w3.org/Graphics/SVG/1.1/DTD/svg11.dtd">
<svg version="1.1" id="Layer_1" xmlns="http://www.w3.org/2000/svg" xmlns:xlink="http://www.w3.org/1999/xlink" x="0px" y="0px"
	 width="100px" height="100px" viewBox="0 0 100 100" enable-background="new 0 0 100 100" xml:space="preserve">
<g>
	<path fill="#506A58" d="M94.448,46.859c-0.455-6.391,5.152-14.587,2.334-20.229s-12.74-6.081-17.577-10.282
		c-4.666-4.053-6.423-13.875-12.651-15.953c-6.228-2.078-13.53,4.72-19.695,5.158c-6.391,0.454-14.587-5.153-20.229-2.334
		s-6.081,12.74-10.282,17.577C12.294,25.46,2.472,27.218,0.394,33.446s4.72,13.531,5.158,19.696
		c0.454,6.391-5.153,14.587-2.335,20.229c2.819,5.643,12.74,6.081,17.577,10.282c4.666,4.053,6.424,13.875,12.651,15.953
		s13.531-4.72,19.695-5.157c6.392-0.455,14.587,5.152,20.229,2.334s6.082-12.74,10.283-17.577
		c4.053-4.666,13.874-6.423,15.952-12.651S94.887,53.023,94.448,46.859z M50,88.855c-21.459,0-38.854-17.396-38.854-38.855
		c0-21.458,17.396-38.854,38.854-38.854c21.458,0,38.854,17.396,38.854,38.854C88.854,71.459,71.458,88.855,50,88.855z"/>
	<path fill="#506A58" d="M50,12.701C29.399,12.701,12.7,29.4,12.7,50c0,20.601,16.699,37.3,37.3,37.3c20.6,0,37.3-16.7,37.3-37.3
		C87.3,29.4,70.6,12.701,50,12.701z M50,85.267c-19.478,0-35.268-15.789-35.268-35.267c0-19.478,15.79-35.267,35.268-35.267
		c19.477,0,35.267,15.789,35.267,35.267C85.267,69.478,69.477,85.267,50,85.267z"/>
	<path fill="#506A58" d="M44.125,25.661c-0.022-0.021-0.045-0.042-0.067-0.062C44.08,25.619,44.103,25.64,44.125,25.661
		L44.125,25.661z"/>
	<path fill="#506A58" d="M50.185,20.286c-0.007-0.003-0.015-0.006-0.024-0.007c-0.003,0.017-0.006,0.034-0.009,0.051
		c0.003-0.017,0.006-0.034,0.009-0.051C50.17,20.28,50.178,20.282,50.185,20.286z"/>
	<path fill="#506A58" d="M50.94,21.528c-0.052-0.127-0.107-0.252-0.219-0.346c-0.005,0.008-0.01,0.017-0.013,0.025
		c0.003-0.008,0.008-0.017,0.013-0.024C50.833,21.276,50.889,21.401,50.94,21.528z"/>
	<path fill="#506A58" d="M51.583,27.796c-0.067-0.016-0.118-0.04-0.136-0.082C51.465,27.756,51.516,27.78,51.583,27.796z"/>
	<path fill="#506A58" d="M47.748,22.691c0.024-0.037,0.069-0.051,0.122-0.048c0.027-0.001,0.052,0.001,0.068,0.015
		c-0.017-0.013-0.041-0.016-0.068-0.015C47.817,22.641,47.772,22.654,47.748,22.691z"/>
	<polygon fill="#506A58" points="48.624,19.927 48.624,19.927 48.626,19.924 	"/>
	<path fill="#506A58" d="M55.028,20.683c-0.074-0.028-0.124-0.083-0.19-0.118c-0.013-0.074-0.021-0.149-0.045-0.221
		c0.023,0.072,0.032,0.147,0.045,0.221C54.904,20.6,54.954,20.655,55.028,20.683z"/>
	<path fill="#506A58" d="M51.828,22.022L51.828,22.022c0.023-0.01,0.048-0.02,0.072-0.03C51.876,22.002,51.852,22.013,51.828,22.022
		z"/>
	<path fill="#506A58" d="M53.227,23.023L53.227,23.023c-0.002,0.029,0.003,0.056,0.013,0.079
		C53.229,23.079,53.225,23.052,53.227,23.023z"/>
	<path fill="#506A58" d="M48.06,19.775c-0.136-0.156-0.271-0.312-0.44-0.434c-0.004-0.012-0.007-0.024-0.011-0.037
		c0.004,0.012,0.007,0.024,0.011,0.037C47.788,19.463,47.924,19.619,48.06,19.775z"/>
	<path fill="#506A58" d="M45.88,28.028c-0.041-0.1-0.053-0.154-0.018-0.187C45.827,27.874,45.838,27.929,45.88,28.028
		c0.028,0,0.056,0.001,0.085,0.002C45.936,28.029,45.908,28.029,45.88,28.028z"/>
	<path fill="#506A58" d="M45.84,28.043L45.84,28.043c0.014-0.004,0.026-0.01,0.039-0.015C45.866,28.033,45.854,28.039,45.84,28.043z
		"/>
	<path fill="#506A58" d="M45.28,27.582c0.01-0.091,0.019-0.182,0.027-0.273c-0.003-0.089-0.016-0.177-0.05-0.261
		c0.034,0.083,0.047,0.171,0.05,0.26C45.299,27.399,45.29,27.491,45.28,27.582z"/>
	<path fill="#506A58" d="M44.561,26.214c-0.002-0.029,0.006-0.061-0.025-0.082c-0.006-0.022-0.012-0.045-0.018-0.068
		c0.006,0.022,0.012,0.045,0.017,0.068C44.566,26.153,44.559,26.185,44.561,26.214z"/>
	<path fill="#506A58" d="M46.558,28.204c-0.045-0.033-0.067-0.073-0.064-0.132C46.49,28.13,46.513,28.171,46.558,28.204
		L46.558,28.204z"/>
	<path fill="#506A58" d="M46.25,21.836c-0.057-0.026-0.116-0.086-0.128-0.13C46.134,21.75,46.193,21.81,46.25,21.836
		c0.002,0.051,0.036,0.078,0.067,0.106C46.286,21.914,46.252,21.887,46.25,21.836z"/>
	<path fill="#506A58" d="M47.136,24.507L47.136,24.507c0.021-0.009,0.042-0.019,0.063-0.027
		C47.178,24.488,47.157,24.498,47.136,24.507z"/>
	<path fill="#506A58" d="M25.745,64.689l-2.001,1.114c-0.044,0.024-0.091,0.051-0.143,0.081c-0.051,0.03-0.104,0.062-0.158,0.095
		s-0.109,0.067-0.163,0.101c-0.055,0.034-0.108,0.066-0.16,0.098c-0.12,0.075-0.242,0.151-0.366,0.226l-0.01-0.017l2.015-3.468
		l-0.296-0.533l-3.657,2.035l0.239,0.43l1.983-1.104c0.096-0.053,0.201-0.114,0.317-0.185c0.116-0.07,0.227-0.138,0.331-0.205
		c0.123-0.077,0.246-0.157,0.368-0.238l0.012,0.02l-2.025,3.483l0.299,0.538l3.657-2.036L25.745,64.689z"/>
	<path fill="#506A58" d="M26.397,68.961c0.122-0.174,0.202-0.351,0.242-0.53c0.039-0.18,0.038-0.358-0.003-0.534
		c-0.041-0.176-0.12-0.343-0.236-0.501c-0.126-0.17-0.269-0.303-0.428-0.398c-0.159-0.095-0.329-0.149-0.511-0.162
		c-0.182-0.013-0.373,0.015-0.572,0.083c-0.2,0.068-0.404,0.18-0.613,0.334c-0.211,0.155-0.378,0.32-0.501,0.496
		c-0.123,0.175-0.204,0.353-0.244,0.532c-0.039,0.18-0.039,0.358,0.001,0.535c0.041,0.176,0.119,0.344,0.236,0.502
		c0.125,0.17,0.268,0.303,0.428,0.396c0.158,0.094,0.33,0.147,0.512,0.161c0.183,0.014,0.374-0.014,0.575-0.083
		c0.202-0.069,0.408-0.182,0.618-0.337C26.11,69.299,26.275,69.135,26.397,68.961z M25.582,69.021
		c-0.321,0.237-0.601,0.363-0.84,0.379c-0.238,0.016-0.444-0.094-0.619-0.331c-0.175-0.237-0.22-0.467-0.135-0.692
		c0.084-0.225,0.286-0.456,0.607-0.692s0.6-0.362,0.835-0.375c0.235-0.014,0.44,0.098,0.614,0.334
		c0.175,0.236,0.222,0.466,0.141,0.688C26.104,68.554,25.902,68.784,25.582,69.021z"/>
	<path fill="#506A58" d="M28.457,69.925c-0.074-0.051-0.152-0.092-0.235-0.122c-0.082-0.03-0.168-0.048-0.257-0.056
		s-0.18,0-0.271,0.021l-0.02-0.021l0.259-0.343l-0.288-0.311l-2.303,2.141l0.354,0.381l1.193-1.109
		c0.134-0.125,0.263-0.225,0.385-0.301c0.123-0.076,0.241-0.123,0.355-0.143c0.115-0.02,0.227-0.008,0.334,0.036
		c0.108,0.042,0.215,0.121,0.32,0.234c0.146,0.157,0.207,0.314,0.185,0.472c-0.023,0.158-0.126,0.321-0.307,0.49l-1.483,1.378
		l0.355,0.381l1.503-1.397c0.294-0.273,0.447-0.536,0.461-0.79c0.013-0.253-0.1-0.508-0.337-0.764
		C28.599,70.036,28.53,69.977,28.457,69.925z"/>
	<path fill="#506A58" d="M32.677,74.602c0.14-0.095,0.263-0.211,0.368-0.349c0.119-0.154,0.203-0.309,0.251-0.464
		c0.048-0.156,0.057-0.312,0.024-0.468c-0.031-0.155-0.104-0.312-0.217-0.468s-0.271-0.312-0.474-0.469l-0.82-0.633l-2.559,3.312
		l0.421,0.326l0.996-1.289l0.34,0.263c0.229,0.177,0.445,0.297,0.646,0.359c0.201,0.063,0.387,0.082,0.558,0.058
		C32.382,74.755,32.537,74.696,32.677,74.602z M31.633,74.214c-0.124-0.057-0.256-0.139-0.396-0.248l-0.293-0.226l1.009-1.305
		l0.362,0.28c0.263,0.203,0.416,0.404,0.46,0.603c0.044,0.199-0.018,0.407-0.183,0.621c-0.095,0.122-0.192,0.212-0.293,0.271
		c-0.101,0.058-0.206,0.088-0.316,0.088C31.873,74.3,31.757,74.272,31.633,74.214z"/>
	<path fill="#506A58" d="M34.812,75.659c0.045,0.036,0.087,0.072,0.127,0.109l0.314-0.37c-0.037-0.035-0.083-0.072-0.139-0.113
		s-0.106-0.076-0.153-0.106c-0.091-0.057-0.181-0.093-0.271-0.108c-0.09-0.015-0.179-0.016-0.268-0.002
		c-0.088,0.013-0.176,0.037-0.263,0.073s-0.172,0.076-0.257,0.119l-0.019-0.012l0.254-0.521l-0.358-0.226l-1.678,2.659l0.44,0.278
		l0.904-1.434c0.083-0.131,0.175-0.239,0.275-0.326s0.206-0.149,0.314-0.188c0.109-0.038,0.219-0.051,0.328-0.04
		c0.11,0.012,0.216,0.049,0.317,0.114C34.725,75.593,34.768,75.624,34.812,75.659z"/>
	<path fill="#506A58" d="M37.259,76.536c-0.115-0.139-0.262-0.252-0.437-0.341c-0.189-0.095-0.376-0.149-0.562-0.163
		c-0.185-0.013-0.361,0.015-0.529,0.086c-0.168,0.07-0.325,0.181-0.474,0.332c-0.147,0.151-0.28,0.343-0.396,0.575
		c-0.118,0.233-0.192,0.456-0.224,0.667c-0.031,0.212-0.023,0.407,0.022,0.586c0.046,0.178,0.127,0.336,0.242,0.477
		c0.115,0.139,0.261,0.253,0.437,0.342c0.189,0.095,0.376,0.149,0.561,0.161c0.184,0.012,0.36-0.017,0.529-0.087
		c0.169-0.069,0.327-0.181,0.477-0.333c0.148-0.153,0.281-0.346,0.399-0.58c0.117-0.232,0.19-0.453,0.221-0.663
		c0.03-0.21,0.022-0.404-0.023-0.583S37.375,76.675,37.259,76.536z M36.824,78.014c-0.18,0.357-0.373,0.596-0.578,0.717
		c-0.206,0.122-0.44,0.117-0.702-0.016c-0.263-0.132-0.407-0.317-0.433-0.556c-0.026-0.239,0.051-0.536,0.23-0.892
		c0.18-0.356,0.371-0.593,0.575-0.712c0.204-0.118,0.438-0.111,0.7,0.021c0.262,0.133,0.407,0.316,0.435,0.552
		C37.08,77.363,37.004,77.658,36.824,78.014z"/>
	
		<rect x="37.857" y="78.525" transform="matrix(-0.9292 -0.3697 0.3697 -0.9292 45.2847 166.2078)" fill="#506A58" width="1.42" height="0.481"/>
	<path fill="#506A58" d="M41.783,77.123l-0.978-0.29l-1.192,4.012l0.511,0.152l0.492-1.658l0.629,0.187l0.471,1.944l0.602,0.178
		l-0.559-2.122c0.111-0.007,0.223-0.024,0.335-0.053c0.112-0.028,0.218-0.074,0.317-0.137s0.189-0.148,0.27-0.253
		c0.08-0.105,0.144-0.238,0.191-0.396c0.113-0.383,0.082-0.703-0.095-0.96C42.601,77.469,42.27,77.268,41.783,77.123z
		 M42.337,78.554c-0.037,0.127-0.087,0.232-0.148,0.316c-0.062,0.084-0.14,0.146-0.232,0.188s-0.201,0.061-0.326,0.058
		c-0.125-0.002-0.27-0.027-0.434-0.076l-0.451-0.134l0.441-1.485l0.439,0.13c0.159,0.047,0.293,0.102,0.4,0.163
		c0.109,0.061,0.192,0.132,0.251,0.213c0.059,0.082,0.093,0.173,0.104,0.276C42.391,78.305,42.376,78.422,42.337,78.554z"/>
	<path fill="#506A58" d="M45.519,79.236c-0.076-0.101-0.181-0.183-0.313-0.246c-0.133-0.064-0.295-0.113-0.487-0.147
		c-0.188-0.035-0.372-0.04-0.552-0.019c-0.181,0.022-0.347,0.058-0.5,0.108l0.111,0.418c0.136-0.042,0.274-0.073,0.417-0.094
		c0.142-0.021,0.291-0.017,0.447,0.011c0.098,0.018,0.183,0.044,0.255,0.081c0.071,0.036,0.129,0.084,0.171,0.146
		s0.069,0.137,0.082,0.226c0.012,0.09,0.006,0.198-0.017,0.323l-0.035,0.195l-0.521-0.074c-0.446-0.064-0.793-0.034-1.039,0.092
		c-0.247,0.126-0.398,0.343-0.454,0.651c-0.028,0.158-0.03,0.298-0.006,0.422c0.024,0.124,0.069,0.23,0.136,0.321
		c0.066,0.09,0.15,0.164,0.252,0.22c0.103,0.057,0.219,0.096,0.349,0.12c0.118,0.021,0.225,0.031,0.317,0.028
		c0.094-0.003,0.181-0.017,0.262-0.043c0.08-0.026,0.156-0.064,0.229-0.114c0.073-0.05,0.148-0.112,0.226-0.185l0.022,0.004
		l0.026,0.447l0.369,0.066l0.382-2.119c0.034-0.185,0.04-0.346,0.018-0.483C45.644,79.454,45.595,79.335,45.519,79.236z
		 M44.979,80.868c-0.026,0.148-0.07,0.274-0.13,0.376c-0.061,0.103-0.133,0.184-0.218,0.243c-0.084,0.06-0.179,0.098-0.282,0.116
		c-0.104,0.019-0.214,0.017-0.328-0.003c-0.148-0.026-0.261-0.089-0.337-0.186c-0.077-0.097-0.1-0.232-0.068-0.405
		c0.017-0.095,0.048-0.179,0.091-0.25c0.044-0.071,0.105-0.126,0.184-0.167s0.177-0.066,0.297-0.076
		c0.12-0.009,0.266-0.002,0.436,0.021l0.407,0.053L44.979,80.868z"/>
	<path fill="#506A58" d="M47.36,78.532l-0.299-0.028l-0.284,0.635l-0.462,0.181l-0.022,0.23l0.442,0.042l-0.17,1.816
		c-0.019,0.192-0.013,0.353,0.018,0.483c0.03,0.129,0.078,0.235,0.145,0.316c0.066,0.081,0.148,0.142,0.246,0.181
		c0.098,0.04,0.206,0.065,0.323,0.077c0.048,0.005,0.097,0.007,0.146,0.006c0.05,0,0.098-0.002,0.144-0.006
		c0.047-0.004,0.09-0.011,0.129-0.018c0.039-0.008,0.071-0.016,0.098-0.025l0.036-0.394c-0.018,0.004-0.043,0.008-0.077,0.013
		c-0.034,0.004-0.071,0.007-0.111,0.01c-0.041,0.001-0.082,0.003-0.126,0.002c-0.043,0-0.082-0.001-0.115-0.005
		c-0.138-0.013-0.231-0.069-0.282-0.167c-0.052-0.099-0.068-0.24-0.051-0.425l0.17-1.815l0.787,0.074l0.036-0.39l-0.787-0.074
		L47.36,78.532z"/>
	<path fill="#506A58" d="M50.678,79.719c-0.103-0.125-0.229-0.223-0.379-0.293c-0.149-0.07-0.318-0.106-0.508-0.11
		c-0.192-0.003-0.369,0.031-0.529,0.103c-0.161,0.072-0.3,0.178-0.417,0.318c-0.116,0.141-0.208,0.312-0.274,0.515
		s-0.102,0.435-0.105,0.694c-0.005,0.258,0.026,0.488,0.092,0.688c0.065,0.202,0.159,0.372,0.282,0.509
		c0.123,0.138,0.271,0.243,0.443,0.317c0.172,0.074,0.363,0.111,0.573,0.115c0.098,0.002,0.188,0,0.271-0.007
		s0.164-0.018,0.241-0.033c0.077-0.016,0.153-0.037,0.228-0.062c0.073-0.025,0.149-0.056,0.227-0.091l0.007-0.464
		c-0.075,0.034-0.148,0.063-0.222,0.09c-0.073,0.026-0.148,0.048-0.226,0.065c-0.077,0.017-0.158,0.03-0.241,0.038
		c-0.083,0.008-0.174,0.011-0.271,0.01c-0.289-0.005-0.504-0.095-0.647-0.271c-0.144-0.176-0.217-0.449-0.221-0.817l1.981,0.032
		l0.005-0.324c0.004-0.209-0.021-0.401-0.074-0.575C50.859,79.993,50.781,79.844,50.678,79.719z M49.02,80.61
		c0.026-0.284,0.104-0.5,0.232-0.646c0.13-0.147,0.303-0.219,0.521-0.215c0.119,0.002,0.22,0.024,0.303,0.068
		s0.151,0.104,0.204,0.181c0.054,0.077,0.092,0.17,0.116,0.278c0.024,0.108,0.035,0.227,0.033,0.357L49.02,80.61z"/>
	<path fill="#506A58" d="M53.515,77.853l0.123,1.243c0.003,0.031,0.009,0.071,0.019,0.123c0.009,0.052,0.018,0.103,0.026,0.151
		c0.012,0.058,0.023,0.12,0.036,0.184l-0.035,0.003c-0.048-0.057-0.103-0.11-0.165-0.159s-0.133-0.091-0.21-0.126
		c-0.077-0.034-0.163-0.06-0.256-0.075c-0.094-0.016-0.197-0.018-0.309-0.007c-0.177,0.019-0.335,0.069-0.474,0.153
		c-0.14,0.083-0.255,0.199-0.346,0.346s-0.154,0.325-0.191,0.533c-0.037,0.208-0.042,0.446-0.016,0.714
		c0.026,0.266,0.078,0.497,0.155,0.692c0.077,0.195,0.175,0.356,0.293,0.481c0.118,0.125,0.253,0.215,0.406,0.27
		c0.153,0.054,0.317,0.072,0.494,0.054c0.114-0.012,0.216-0.034,0.305-0.068c0.088-0.034,0.167-0.076,0.235-0.127
		c0.069-0.051,0.129-0.108,0.179-0.172c0.051-0.063,0.094-0.129,0.129-0.199l0.022-0.002l0.119,0.411l0.419-0.042l-0.441-4.432
		L53.515,77.853z M53.809,81.319c-0.016,0.137-0.051,0.253-0.103,0.348c-0.054,0.095-0.128,0.169-0.223,0.224
		c-0.096,0.053-0.216,0.087-0.36,0.102c-0.26,0.026-0.46-0.052-0.6-0.235c-0.14-0.183-0.229-0.472-0.27-0.87
		c-0.038-0.387-0.008-0.691,0.093-0.909c0.1-0.219,0.278-0.342,0.534-0.367c0.153-0.016,0.284-0.002,0.393,0.04
		c0.107,0.042,0.197,0.111,0.269,0.207c0.072,0.095,0.129,0.216,0.169,0.363c0.041,0.146,0.07,0.315,0.089,0.507l0.013,0.117
		C53.826,81.024,53.825,81.182,53.809,81.319z"/>
	<path fill="#506A58" d="M58.472,79.108L58.6,79.56l0.823-0.233l0.34,1.202c-0.045,0.022-0.092,0.046-0.139,0.07
		c-0.048,0.024-0.1,0.048-0.154,0.072s-0.115,0.047-0.181,0.07c-0.065,0.024-0.139,0.047-0.22,0.07
		c-0.246,0.07-0.468,0.09-0.664,0.06c-0.197-0.029-0.371-0.1-0.521-0.212c-0.151-0.112-0.279-0.261-0.386-0.444
		c-0.106-0.185-0.194-0.396-0.262-0.634c-0.071-0.252-0.104-0.486-0.101-0.704c0.004-0.218,0.045-0.413,0.122-0.585
		s0.191-0.32,0.343-0.443c0.151-0.124,0.339-0.216,0.563-0.28c0.085-0.024,0.171-0.042,0.261-0.053
		c0.089-0.011,0.177-0.018,0.264-0.02c0.087-0.001,0.172,0,0.256,0.006c0.084,0.006,0.164,0.016,0.238,0.028l0.072-0.502
		c-0.184-0.031-0.374-0.041-0.573-0.028c-0.198,0.013-0.399,0.048-0.604,0.105c-0.314,0.089-0.58,0.216-0.798,0.382
		c-0.219,0.166-0.386,0.362-0.502,0.588c-0.116,0.227-0.183,0.48-0.197,0.76c-0.016,0.28,0.021,0.578,0.111,0.894
		c0.09,0.319,0.211,0.596,0.362,0.83c0.151,0.233,0.329,0.418,0.532,0.554c0.203,0.136,0.429,0.221,0.679,0.254
		c0.249,0.034,0.519,0.01,0.807-0.071c0.138-0.039,0.265-0.08,0.382-0.124c0.117-0.042,0.227-0.088,0.33-0.136
		c0.104-0.048,0.203-0.1,0.299-0.154s0.189-0.113,0.281-0.174l-0.56-1.976L58.472,79.108z"/>
	<path fill="#506A58" d="M62.124,76.772l0.638,1.502c0.071,0.169,0.122,0.324,0.152,0.464c0.029,0.141,0.033,0.268,0.013,0.381
		c-0.021,0.114-0.07,0.214-0.147,0.301c-0.077,0.086-0.187,0.16-0.329,0.221c-0.195,0.083-0.363,0.087-0.505,0.012
		c-0.142-0.074-0.262-0.226-0.358-0.454l-0.791-1.863l-0.48,0.203l0.803,1.89c0.079,0.184,0.167,0.335,0.265,0.451
		c0.099,0.116,0.206,0.2,0.323,0.251c0.118,0.052,0.245,0.072,0.384,0.061s0.287-0.051,0.447-0.119
		c0.084-0.036,0.163-0.08,0.236-0.131c0.073-0.052,0.139-0.111,0.195-0.178c0.057-0.066,0.104-0.141,0.141-0.222
		s0.062-0.168,0.073-0.263l0.026-0.011l0.236,0.357l0.388-0.165l-1.229-2.893L62.124,76.772z"/>
	<path fill="#506A58" d="M65.498,75.579c-0.104-0.092-0.218-0.152-0.34-0.181s-0.255-0.026-0.398,0.01s-0.3,0.101-0.47,0.196
		c-0.166,0.094-0.312,0.206-0.438,0.337c-0.125,0.132-0.23,0.266-0.316,0.401l0.352,0.253c0.079-0.118,0.166-0.231,0.263-0.338
		s0.213-0.199,0.352-0.276c0.087-0.048,0.169-0.082,0.248-0.1c0.078-0.018,0.153-0.017,0.225,0.003
		c0.072,0.02,0.141,0.06,0.207,0.122c0.066,0.061,0.131,0.147,0.193,0.259l0.097,0.172l-0.45,0.275
		c-0.385,0.234-0.633,0.478-0.742,0.732c-0.11,0.254-0.089,0.518,0.064,0.791c0.079,0.14,0.166,0.25,0.264,0.33
		c0.098,0.08,0.2,0.134,0.31,0.162c0.108,0.027,0.22,0.03,0.335,0.008c0.114-0.021,0.229-0.064,0.345-0.129
		c0.104-0.059,0.191-0.119,0.263-0.181c0.07-0.062,0.128-0.128,0.174-0.199c0.045-0.072,0.08-0.15,0.104-0.235
		s0.043-0.18,0.057-0.286l0.02-0.011l0.306,0.327l0.327-0.184l-1.055-1.877C65.7,75.799,65.603,75.671,65.498,75.579z
		 M65.907,77.698c-0.027,0.1-0.075,0.19-0.145,0.27c-0.068,0.081-0.154,0.149-0.256,0.206c-0.131,0.073-0.257,0.097-0.378,0.071
		c-0.121-0.027-0.225-0.116-0.311-0.269c-0.048-0.085-0.077-0.169-0.088-0.251c-0.012-0.083,0-0.165,0.034-0.246
		c0.034-0.082,0.095-0.164,0.181-0.248c0.087-0.083,0.203-0.17,0.349-0.262l0.348-0.218L65.78,77c0.074,0.131,0.12,0.256,0.14,0.374
		C65.938,77.49,65.935,77.599,65.907,77.698z"/>
	<path fill="#506A58" d="M67.137,75.113c-0.04-0.126-0.056-0.247-0.049-0.363c0.008-0.115,0.039-0.221,0.093-0.317
		c0.054-0.096,0.131-0.179,0.23-0.247c0.04-0.028,0.086-0.056,0.136-0.082c0.051-0.026,0.101-0.051,0.149-0.073l-0.216-0.435
		c-0.046,0.021-0.099,0.048-0.158,0.083c-0.06,0.035-0.112,0.068-0.157,0.099c-0.088,0.061-0.157,0.13-0.206,0.206
		c-0.05,0.077-0.085,0.159-0.107,0.245c-0.023,0.087-0.035,0.177-0.037,0.271s0.001,0.188,0.009,0.282l-0.02,0.014l-0.378-0.439
		l-0.349,0.24l1.782,2.59l0.429-0.295l-0.961-1.396C67.24,75.367,67.176,75.24,67.137,75.113z"/>
	<path fill="#506A58" d="M69.828,72.384c-0.119-0.072-0.241-0.112-0.366-0.119c-0.126-0.006-0.256,0.021-0.391,0.082
		c-0.134,0.061-0.276,0.153-0.427,0.277c-0.146,0.121-0.271,0.259-0.37,0.41c-0.1,0.152-0.18,0.303-0.239,0.452l0.392,0.186
		c0.056-0.13,0.121-0.256,0.196-0.379c0.076-0.123,0.175-0.234,0.298-0.335c0.076-0.063,0.151-0.111,0.226-0.143
		c0.074-0.032,0.147-0.044,0.222-0.037c0.074,0.007,0.149,0.035,0.226,0.083c0.076,0.049,0.154,0.123,0.236,0.221l0.126,0.152
		l-0.394,0.352c-0.337,0.299-0.537,0.584-0.6,0.854c-0.062,0.27,0.006,0.525,0.205,0.767c0.103,0.124,0.209,0.216,0.318,0.277
		c0.11,0.062,0.222,0.096,0.333,0.104c0.112,0.008,0.223-0.009,0.332-0.051c0.108-0.042,0.214-0.104,0.315-0.189
		c0.093-0.077,0.168-0.152,0.227-0.225c0.058-0.073,0.104-0.148,0.135-0.227c0.032-0.079,0.052-0.162,0.062-0.25
		c0.009-0.088,0.01-0.185,0.004-0.292l0.018-0.015l0.359,0.268l0.289-0.239l-1.373-1.659C70.067,72.564,69.948,72.456,69.828,72.384
		z M70.564,74.073c0.039,0.113,0.055,0.22,0.046,0.323c-0.01,0.103-0.041,0.2-0.094,0.291c-0.054,0.092-0.125,0.174-0.215,0.249
		c-0.116,0.096-0.236,0.142-0.359,0.137c-0.124-0.004-0.241-0.073-0.354-0.208c-0.062-0.075-0.106-0.152-0.132-0.231
		c-0.026-0.079-0.029-0.162-0.011-0.248c0.02-0.086,0.063-0.178,0.135-0.276c0.069-0.098,0.168-0.205,0.296-0.32l0.303-0.276
		l0.181,0.218C70.456,73.847,70.524,73.961,70.564,74.073z"/>
	<path fill="#506A58" d="M71.925,69.895c-0.254,0-0.503,0.125-0.746,0.375c-0.063,0.066-0.119,0.137-0.167,0.213
		c-0.047,0.076-0.084,0.157-0.109,0.241s-0.04,0.17-0.043,0.259c-0.003,0.089,0.009,0.18,0.034,0.271l-0.02,0.021l-0.355-0.242
		l-0.296,0.304l2.256,2.19l0.363-0.375l-1.169-1.134c-0.132-0.127-0.238-0.25-0.32-0.369s-0.136-0.234-0.161-0.348
		c-0.025-0.113-0.02-0.225,0.019-0.335c0.037-0.11,0.109-0.221,0.217-0.332c0.149-0.153,0.303-0.223,0.462-0.208
		c0.159,0.014,0.327,0.108,0.506,0.281l1.452,1.41l0.363-0.374l-1.474-1.43C72.449,70.035,72.178,69.896,71.925,69.895z"/>
	<path fill="#506A58" d="M75.477,69.559c-0.015,0.031-0.033,0.063-0.054,0.098c-0.021,0.035-0.043,0.07-0.067,0.106
		s-0.047,0.067-0.068,0.094c-0.087,0.106-0.186,0.154-0.296,0.142c-0.11-0.012-0.237-0.076-0.382-0.192l-1.417-1.147l0.497-0.614
		l-0.305-0.247l-0.497,0.614l-0.562-0.454l-0.188,0.233l0.371,0.588l-0.105,0.486l0.18,0.146l0.279-0.345l1.418,1.147
		c0.149,0.122,0.287,0.206,0.412,0.253s0.24,0.066,0.344,0.056c0.104-0.011,0.2-0.045,0.287-0.104
		c0.088-0.06,0.169-0.135,0.243-0.227c0.03-0.037,0.059-0.077,0.086-0.119c0.027-0.041,0.053-0.083,0.074-0.124
		c0.022-0.041,0.041-0.08,0.057-0.117c0.015-0.037,0.025-0.069,0.032-0.095l-0.307-0.249C75.502,69.504,75.491,69.528,75.477,69.559
		z"/>
	<path fill="#506A58" d="M77.021,67.162c-0.018,0.076-0.041,0.15-0.069,0.224c-0.028,0.075-0.062,0.149-0.101,0.223
		c-0.038,0.074-0.085,0.152-0.14,0.232c-0.162,0.238-0.355,0.37-0.581,0.393s-0.493-0.064-0.804-0.263l1.11-1.641L76.17,66.15
		c-0.174-0.118-0.348-0.202-0.522-0.252s-0.342-0.066-0.503-0.048c-0.161,0.018-0.312,0.07-0.452,0.157s-0.264,0.208-0.37,0.365
		c-0.108,0.16-0.176,0.327-0.204,0.5c-0.027,0.174-0.015,0.348,0.039,0.522c0.054,0.175,0.147,0.345,0.281,0.512
		c0.134,0.167,0.308,0.323,0.522,0.468c0.214,0.145,0.423,0.245,0.627,0.3s0.398,0.069,0.58,0.042
		c0.183-0.027,0.352-0.093,0.508-0.198c0.155-0.104,0.292-0.243,0.41-0.417c0.055-0.081,0.102-0.158,0.142-0.23
		c0.041-0.073,0.075-0.146,0.104-0.22c0.029-0.074,0.053-0.149,0.072-0.225c0.019-0.076,0.035-0.155,0.048-0.239l-0.384-0.26
		C77.055,67.008,77.039,67.086,77.021,67.162z M74.568,67.176c-0.052-0.188-0.017-0.373,0.105-0.553
		c0.066-0.098,0.141-0.17,0.222-0.216c0.082-0.046,0.17-0.07,0.264-0.072s0.192,0.016,0.296,0.055
		c0.104,0.039,0.21,0.095,0.317,0.168l-0.79,1.166C74.759,67.547,74.621,67.365,74.568,67.176z"/>
	<path fill="#506A58" d="M78.672,64.243c-0.01,0.077-0.025,0.154-0.046,0.23c-0.021,0.077-0.046,0.154-0.076,0.232
		c-0.031,0.078-0.069,0.159-0.115,0.245c-0.136,0.254-0.314,0.405-0.536,0.452c-0.222,0.047-0.498-0.012-0.827-0.177l0.933-1.748
		l-0.285-0.153c-0.185-0.099-0.367-0.164-0.546-0.196s-0.348-0.03-0.506,0.004s-0.303,0.103-0.433,0.204
		c-0.131,0.101-0.241,0.235-0.33,0.402c-0.091,0.17-0.141,0.343-0.15,0.519c-0.01,0.175,0.021,0.348,0.093,0.515
		c0.072,0.168,0.183,0.328,0.333,0.48c0.151,0.152,0.341,0.289,0.569,0.411c0.228,0.121,0.446,0.199,0.655,0.232
		s0.402,0.027,0.581-0.019c0.178-0.047,0.34-0.13,0.483-0.25c0.145-0.12,0.266-0.272,0.365-0.458
		c0.045-0.085,0.085-0.167,0.117-0.244c0.032-0.077,0.059-0.154,0.08-0.23s0.038-0.153,0.049-0.23
		c0.011-0.077,0.019-0.158,0.022-0.242l-0.409-0.219C78.688,64.086,78.682,64.166,78.672,64.243z M76.703,65.015
		c-0.241-0.152-0.397-0.32-0.469-0.502c-0.072-0.182-0.057-0.369,0.046-0.561c0.056-0.104,0.122-0.184,0.198-0.238
		c0.077-0.054,0.161-0.088,0.255-0.1c0.093-0.012,0.192-0.004,0.3,0.024c0.107,0.028,0.219,0.073,0.333,0.134L76.703,65.015z"/>
	<path fill="#506A58" d="M21.012,45.842c0.31-0.186,0.62-0.695,0.62-1.303c0-1.501-1.91-1.972-1.91-3.398
		c0-1.055,1.055-2.94,1.935-2.903c0.1,0.161,0.149,0.335,0.149,0.521c0,0.794-0.881,1.935-0.881,2.729
		c0,0.447,0.285,0.595,0.607,0.595c0.359,0,0.559-0.198,0.633-0.62c0.272-1.563,0.348-2.021,0.348-2.294
		c0-0.373-0.149-0.869-0.646-1.104c-0.024-0.162-0.434-0.373-0.781-0.373c-1.116,0-2.567,2.208-2.567,3.746
		c0,1.997,2.419,2.779,2.419,3.783c0,0.286-0.198,0.646-0.968,0.646c-1.427,0-1.551-1.228-2.395-1.228
		c-0.409,0-0.756,0.285-0.756,0.558c0,0.111,0.049,0.198,0.136,0.285c1.018,0.943,1.601,1.141,2.245,1.141
		C20.094,46.624,20.838,46.239,21.012,45.842z"/>
	<path fill="#506A58" d="M23.318,46.574c0.509,0,0.918-0.397,1.253-1.042c0.024,0.843,0.471,1.042,0.843,1.042
		c0.61,0,1.139-0.698,1.508-1.363c0.083-0.401,0.167-0.805,0.251-1.198c-0.167,0.338-0.891,1.83-1.324,1.83
		c-0.112,0-0.161-0.112-0.161-0.335c0-0.856,1.042-4.329,1.042-4.825c0-0.323-0.261-0.509-0.533-0.509
		c-0.298,0-0.596,0.186-0.683,0.596c-0.559,2.567-1.03,4.961-1.749,4.961c-0.186,0-0.272-0.186-0.272-0.521
		c0-0.806,0.458-2.456,0.855-4.428c0.013-0.037,0.013-0.087,0.013-0.124c0-0.298-0.261-0.459-0.533-0.459
		c-0.285,0-0.608,0.174-0.67,0.558c-0.248,1.489-0.77,3.287-0.77,4.49C22.388,46.041,22.624,46.574,23.318,46.574z"/>
	<path fill="#506A58" d="M27.399,43.771c0.05,0,0.087,0.038,0.087,0.124c0,0.05-0.013,0.125-0.05,0.211
		c-0.072,0.18-0.254,0.635-0.515,1.105c-0.417,2.021-0.788,3.98-0.788,4.204c0,0.397,0.272,0.533,0.533,0.533
		c0.223,0,0.434-0.074,0.459-0.372c0.037-0.446,0.297-1.749,0.62-3.225c0.186,0.149,0.521,0.273,1.092,0.273
		c1.569,0,2.402-0.718,3.009-1.928c-0.005-0.084-0.008-0.169-0.008-0.255c0-0.148,0.009-0.3,0.022-0.454
		c-0.595,1.225-1.264,1.93-2.391,2.178c1.029-0.856,1.811-2.89,1.811-4.354c0-0.894-0.311-1.625-1.066-1.625
		c-0.534,0-0.98,0.545-1.34,1.327c0.099-0.409,0.099-0.447,0.099-0.496c0-0.298-0.26-0.472-0.533-0.472
		c-0.235,0-0.483,0.137-0.57,0.447c-0.168,0.607-0.429,1.759-0.697,3.021c0.005-0.01,0.012-0.023,0.016-0.031
		C27.263,43.833,27.337,43.771,27.399,43.771z M28.316,43.882c0.409-1.588,0.955-2.803,1.439-2.803c0.223,0,0.322,0.26,0.322,0.707
		c0,1.327-0.856,4.031-1.699,4.18c-0.174-0.211-0.335-0.286-0.472-0.286L28.316,43.882z"/>
	<path fill="#506A58" d="M27.437,44.105c0.037-0.086,0.05-0.161,0.05-0.211c0-0.086-0.037-0.124-0.087-0.124
		c-0.062,0-0.137,0.062-0.211,0.211c-0.004,0.008-0.011,0.021-0.016,0.031c-0.084,0.393-0.168,0.797-0.251,1.198
		C27.183,44.74,27.364,44.286,27.437,44.105z"/>
	<path fill="#506A58" d="M32.062,43.783c0.05,0,0.087,0.049,0.087,0.136c0,0.062-0.013,0.112-0.037,0.186
		c-0.084,0.208-0.173,0.405-0.266,0.59c0.061,1.06,0.505,1.891,1.493,1.891c1.098,0,1.863-0.647,2.413-1.578
		c0.04-0.292,0.091-0.615,0.151-0.96c-0.334,0.548-0.961,1.782-2.093,1.782c-0.77,0-0.819-0.942-0.819-1.488
		c0.161,0.05,0.323,0.074,0.472,0.074c1.315,0,2.208-1.674,2.208-2.865c0-0.608-0.235-1.079-0.757-1.141
		c-0.148-0.124-0.434-0.211-0.707-0.211c-1.198,0-2.194,2.025-2.347,3.789c0.001-0.002,0.002-0.003,0.003-0.005
		C31.926,43.845,32.001,43.783,32.062,43.783z M34.692,40.682c0.186,0,0.211,0.211,0.211,0.409c0,0.968-1.055,2.928-1.787,2.928
		c-0.037,0-0.062,0-0.099-0.013C33.166,42.518,33.985,40.682,34.692,40.682z"/>
	<path fill="#506A58" d="M31.847,44.696c0.093-0.186,0.182-0.382,0.266-0.59c0.024-0.074,0.037-0.124,0.037-0.186
		c0-0.087-0.037-0.136-0.087-0.136c-0.062,0-0.137,0.062-0.198,0.198c-0.001,0.002-0.002,0.003-0.003,0.005
		c-0.014,0.153-0.022,0.306-0.022,0.454C31.839,44.527,31.842,44.612,31.847,44.696z"/>
	<path fill="#506A58" d="M36.144,43.808c0.05,0,0.087,0.049,0.087,0.124c0,0.049-0.013,0.111-0.037,0.173
		c-0.129,0.32-0.275,0.624-0.44,0.903c-0.06,0.444-0.094,0.814-0.094,1.057c0,0.372,0.236,0.546,0.472,0.546
		c0.211,0,0.422-0.137,0.459-0.41l0.198-1.314c0.322-2.097,1.34-3.87,1.762-3.87c0.086,0,0.123,0.062,0.123,0.149
		c0,0.384-0.545,1.215-0.545,1.897c0,0.745,0.471,0.956,0.967,0.956c0.387,0,0.744-0.229,1.039-0.543
		c0.051-0.264,0.108-0.541,0.17-0.826c-0.248,0.435-0.585,0.885-0.874,0.885c-0.186,0-0.285-0.1-0.285-0.273
		c0-0.434,0.596-1.588,0.596-2.283c0-0.533-0.174-0.806-0.633-0.806c-0.607,0-1.153,0.695-1.6,1.65
		c0.062-0.223,0.211-0.533,0.211-0.744c0-0.348-0.323-0.546-0.608-0.546c-0.21,0-0.409,0.099-0.471,0.31
		c-0.3,1.024-0.559,2.199-0.735,3.205c0.014-0.023,0.027-0.046,0.041-0.066C36.02,43.857,36.081,43.808,36.144,43.808z"/>
	<path fill="#506A58" d="M36.193,44.105c0.024-0.062,0.037-0.124,0.037-0.173c0-0.075-0.037-0.124-0.087-0.124
		c-0.062,0-0.124,0.049-0.198,0.173c-0.014,0.02-0.027,0.043-0.041,0.066c-0.061,0.345-0.111,0.669-0.151,0.96
		C35.918,44.729,36.064,44.426,36.193,44.105z"/>
	<path fill="#506A58" d="M40.795,41.848c0.136,0,0.086,0.26,0.062,0.347c-0.103,0.388-0.365,0.898-0.723,1.281
		c-0.156,0.803-0.258,1.478-0.258,1.82c0,0.93,0.409,1.278,0.894,1.278c0.745,0,1.324-1.04,1.658-1.792
		c-0.006-0.087-0.009-0.177-0.009-0.267c0-0.172,0.011-0.342,0.026-0.51c-0.157,0.32-0.818,1.75-1.267,1.75
		c-0.161,0-0.224-0.149-0.224-0.41c0-0.955,1.03-3.944,1.03-4.602c0-0.422-0.335-0.633-0.646-0.633
		c-0.235,0-0.435,0.112-0.496,0.323c-0.192,0.707-0.381,1.485-0.54,2.216c0.104-0.182,0.192-0.362,0.255-0.504
		C40.633,41.959,40.72,41.848,40.795,41.848z"/>
	<path fill="#506A58" d="M41.538,39.541c0.782,0,1.29-0.658,1.29-1.179c0-0.347-0.223-0.645-0.731-0.645
		c-0.683,0-1.116,0.695-1.116,1.228C40.98,39.268,41.153,39.541,41.538,39.541z"/>
	<path fill="#506A58" d="M40.856,42.195c0.024-0.087,0.074-0.347-0.062-0.347c-0.075,0-0.162,0.111-0.236,0.298
		c-0.062,0.143-0.15,0.322-0.255,0.504c-0.062,0.285-0.119,0.562-0.17,0.826C40.491,43.093,40.754,42.583,40.856,42.195z"/>
	<path fill="#506A58" d="M42.667,43.771c0.05,0,0.087,0.05,0.087,0.124c0,0.062-0.013,0.125-0.05,0.211
		c-0.049,0.124-0.145,0.378-0.276,0.677c0.061,1.016,0.479,1.804,1.393,1.804c0.707,0,1.364-0.608,1.849-1.464
		c0.53,0,0.986-0.23,1.293-0.516c0.029-0.186,0.062-0.384,0.098-0.588c-0.298,0.528-0.757,0.732-1.192,0.744
		c0.409-0.831,0.657-1.824,0.657-2.68c0-1.066-0.409-1.91-1.401-1.91c-0.781,0-1.29,0.596-1.526,1.377
		c-0.31-0.049-0.521,0.248-0.62,0.472c-0.262,0.555-0.464,1.25-0.531,1.983c0.003-0.007,0.008-0.017,0.011-0.023
		C42.531,43.845,42.605,43.771,42.667,43.771z M45.049,40.645c0.297,0,0.409,0.472,0.409,1.117c0,0.806-0.198,1.923-0.472,2.803
		c-0.583-0.347-0.807-1.079-0.807-1.811C44.18,41.674,44.627,40.645,45.049,40.645z M43.609,43.671
		c0.198,0.596,0.57,1.104,1.229,1.327c-0.211,0.558-0.447,0.943-0.683,0.98c-0.037,0.013-0.074,0.013-0.111,0.013
		c-0.41,0-0.571-0.497-0.571-1.154C43.473,44.478,43.522,44.068,43.609,43.671z"/>
	<path fill="#506A58" d="M42.428,44.782c0.132-0.299,0.228-0.553,0.276-0.677c0.037-0.086,0.05-0.149,0.05-0.211
		c0-0.074-0.037-0.124-0.087-0.124c-0.062,0-0.136,0.075-0.211,0.211c-0.003,0.006-0.008,0.016-0.011,0.023
		c-0.016,0.168-0.026,0.338-0.026,0.51C42.419,44.605,42.422,44.695,42.428,44.782z"/>
	<path fill="#506A58" d="M47.306,43.771c0.037,0,0.075,0.025,0.075,0.087c0,0.05-0.013,0.124-0.05,0.224
		c-0.06,0.17-0.188,0.357-0.369,0.526c-0.104,0.667-0.165,1.202-0.165,1.458c0,0.372,0.236,0.546,0.472,0.546
		c0.211,0,0.409-0.137,0.459-0.41l0.198-1.314c0.322-2.097,1.34-3.87,1.762-3.87c0.087,0,0.124,0.062,0.124,0.149
		c0,0.384-0.509,1.029-0.509,1.773c0,0.397,0.322,0.633,0.607,0.633c0.224,0,0.41-0.124,0.435-0.397
		c0.074-0.72,0.533-1.501,0.533-2.196c0-0.533-0.174-0.806-0.633-0.806c-0.607,0-1.153,0.695-1.6,1.65
		c0.062-0.223,0.211-0.533,0.211-0.744c0-0.348-0.323-0.546-0.608-0.546c-0.211,0-0.409,0.099-0.471,0.31
		c-0.289,0.99-0.541,2.17-0.718,3.176c0.008-0.013,0.016-0.024,0.023-0.038C47.157,43.857,47.219,43.771,47.306,43.771z"/>
	<path fill="#506A58" d="M47.331,44.081c0.037-0.1,0.05-0.174,0.05-0.224c0-0.062-0.038-0.087-0.075-0.087
		c-0.087,0-0.148,0.087-0.223,0.211c-0.008,0.014-0.016,0.024-0.023,0.038c-0.035,0.204-0.068,0.402-0.098,0.588
		C47.143,44.438,47.271,44.251,47.331,44.081z"/>
	<path fill="#506A58" d="M53.408,42.319c0,1.216,0.483,2.431,1.625,2.431c0.136,0,0.186-0.037,0.186-0.087
		c0-0.062-0.074-0.136-0.186-0.173c-0.372-0.124-0.521-0.67-0.521-1.402c0-2.716,1.166-5.073,2.158-5.073
		c0.137,0,0.224,0.037,0.224,0.037c0.211,0.149,0.31,0.608,0.31,1.253c0,2.245-1.216,6.624-3.138,6.884
		c-0.211-0.087-0.446-0.136-0.707-0.136c-0.248,0-0.385,0.186-0.385,0.347c0,0.136,0.1,0.248,0.298,0.248
		c0.968,0,1.762,1.699,3.101,1.699c0.422,0,0.894-0.533,0.894-0.819c0-0.124-0.062-0.198-0.236-0.198
		c-1.265,0-1.885-0.533-2.518-0.905c2.382-0.199,3.796-3.61,3.796-6.078c0-1.761-0.732-2.679-2.01-2.679
		C54.822,37.668,53.408,39.838,53.408,42.319z"/>
	<path fill="#506A58" d="M63.058,43.981c-0.137,0.273-0.893,1.861-1.34,1.861c-0.111,0-0.161-0.112-0.161-0.335
		c0-0.856,1.042-4.329,1.042-4.825c0-0.323-0.261-0.509-0.533-0.509c-0.298,0-0.596,0.186-0.683,0.596
		c-0.558,2.567-1.029,4.961-1.749,4.961c-0.186,0-0.272-0.186-0.272-0.521c0-0.806,0.459-2.456,0.855-4.428
		c0.013-0.037,0.013-0.087,0.013-0.124c0-0.298-0.261-0.459-0.533-0.459c-0.285,0-0.608,0.174-0.67,0.558
		c-0.248,1.489-0.77,3.287-0.77,4.49c0,0.794,0.236,1.328,0.931,1.328c0.509,0,0.918-0.397,1.253-1.042
		c0.024,0.843,0.472,1.042,0.844,1.042c0.727,0,1.338-0.988,1.7-1.734C62.987,44.568,63.013,44.278,63.058,43.981L63.058,43.981z"/>
	<path fill="#506A58" d="M67.711,43.978c0,0.001-0.001,0.002-0.002,0.004c-0.583,1.203-0.968,1.861-1.229,1.861
		c-0.111,0-0.174-0.124-0.174-0.31c0-0.596,0.435-1.935,0.77-3.51c0.013-0.062,0.013-0.124,0.013-0.187
		c0-0.459-0.372-0.719-0.683-0.719h-0.074c-0.025-0.385-0.335-0.918-0.831-0.918c-1.211,0-2.178,2.019-2.443,3.783
		c0.074-0.149,0.148-0.211,0.211-0.211c0.05,0,0.087,0.038,0.087,0.124c0,0.05-0.013,0.125-0.05,0.211
		c-0.053,0.131-0.164,0.41-0.321,0.734c0,0.015-0.002,0.032-0.002,0.047c0,0.967,0.286,1.687,0.956,1.687
		c0.396,0,0.868-0.534,1.277-1.377c-0.013,0.086-0.013,0.173-0.013,0.235c0,0.931,0.459,1.142,0.844,1.142
		c0.686,0,1.28-1.046,1.626-1.798c0-0.013-0.001-0.024-0.001-0.038C67.672,44.501,67.688,44.243,67.711,43.978z M65.625,43.175
		c-0.311,1.377-0.856,2.555-1.314,2.555c-0.149,0-0.211-0.236-0.211-0.608c0-1.302,0.757-4.205,1.587-4.205
		c0.298,0,0.335,0.261,0.335,0.472L65.625,43.175z"/>
	<path fill="#506A58" d="M63.355,43.895c0-0.086-0.037-0.124-0.087-0.124c-0.062,0-0.137,0.062-0.211,0.211
		c-0.045,0.297-0.07,0.586-0.073,0.858c0.157-0.324,0.269-0.603,0.321-0.734C63.343,44.019,63.355,43.944,63.355,43.895z"/>
	<path fill="#506A58" d="M69.21,45.817c-0.348,0-0.496-0.248-0.496-0.782c0-0.384,0.062-0.942,0.161-1.575
		c1.501,0.149,2.443-3.064,2.443-4.775c0-0.831-0.224-1.067-0.546-1.253c-0.087-0.124-0.272-0.248-0.496-0.248
		c-1.129,0-1.86,2.617-2.319,5.098c-0.116,0.594-0.2,1.167-0.246,1.695c0.062-0.134,0.16-0.207,0.222-0.207
		c0.037,0,0.074,0.038,0.074,0.124c0,0.05-0.013,0.125-0.05,0.211c-0.049,0.123-0.148,0.375-0.284,0.67
		c0.007,1.095,0.294,1.835,1.128,1.835c0.807,0,1.613-0.887,2.125-1.733c0.026-0.24,0.07-0.534,0.128-0.866
		C70.617,44.873,69.859,45.817,69.21,45.817z M70.587,37.68c0.024,0.149,0.037,0.335,0.037,0.533c0,1.452-0.695,4.131-1.699,4.949
		C69.309,40.893,70.14,37.816,70.587,37.68z"/>
	<path fill="#506A58" d="M68.007,43.895c0-0.086-0.037-0.124-0.074-0.124c-0.062,0-0.159,0.073-0.222,0.207
		c-0.022,0.266-0.039,0.524-0.039,0.761c0,0.013,0.001,0.024,0.001,0.038c0.136-0.296,0.235-0.548,0.284-0.67
		C67.994,44.019,68.007,43.944,68.007,43.895z"/>
	<path fill="#506A58" d="M72.198,45.755c-0.161,0-0.223-0.149-0.223-0.41c0-0.955,1.029-3.944,1.029-4.602
		c0-0.422-0.335-0.633-0.645-0.633c-0.236,0-0.435,0.112-0.496,0.323c-0.321,1.179-0.631,2.552-0.811,3.579
		c0.006-0.01,0.012-0.021,0.017-0.031c0.062-0.136,0.137-0.186,0.198-0.186c0.05,0,0.087,0.05,0.087,0.137
		c0,0.049-0.013,0.099-0.037,0.173c-0.094,0.233-0.229,0.5-0.393,0.773c-0.019,0.167-0.029,0.31-0.029,0.418
		c0,0.93,0.409,1.278,0.893,1.278c0.679,0,1.219-0.861,1.562-1.583c0.018-0.274,0.057-0.608,0.113-0.986
		C73.308,44.326,72.647,45.755,72.198,45.755z"/>
	<path fill="#506A58" d="M72.559,39.541c0.781,0,1.29-0.658,1.29-1.179c0-0.347-0.224-0.645-0.732-0.645
		c-0.682,0-1.116,0.695-1.116,1.228C72,39.268,72.174,39.541,72.559,39.541z"/>
	<path fill="#506A58" d="M71.355,43.932c0-0.087-0.037-0.137-0.087-0.137c-0.062,0-0.137,0.05-0.198,0.186
		c-0.005,0.01-0.011,0.021-0.017,0.031c-0.058,0.332-0.102,0.625-0.128,0.866c0.164-0.272,0.299-0.54,0.393-0.773
		C71.343,44.031,71.355,43.981,71.355,43.932z"/>
	<path fill="#506A58" d="M74.741,38.61c-0.161,0.509-0.311,1.042-0.459,1.6c-0.198-0.012-0.396-0.012-0.583-0.012
		c-0.137,0-0.224,0.198-0.224,0.384c0,0.162,0.062,0.323,0.211,0.335l0.397,0.038c-0.269,1.098-0.49,2.186-0.619,3.05
		c0.004-0.008,0.009-0.018,0.012-0.024c0.074-0.136,0.148-0.211,0.211-0.211c0.049,0,0.087,0.05,0.087,0.124
		c0,0.062-0.013,0.125-0.05,0.211c-0.061,0.152-0.189,0.499-0.373,0.886c-0.007,0.112-0.012,0.215-0.012,0.305
		c0,0.93,0.409,1.278,0.893,1.278c0.698,0,1.311-0.911,1.692-1.645c0.021-0.292,0.066-0.608,0.127-0.942
		c-0.348,0.562-0.978,1.917-1.459,1.917c-0.187,0-0.261-0.199-0.261-0.521c0-0.893,0.583-2.816,1.055-4.453
		c0.905-0.099,1.364-0.223,1.364-0.397s-0.57-0.211-1.179-0.261c0.137-0.496,0.322-1.042,0.322-1.352
		c0-0.422-0.335-0.621-0.645-0.621C75.014,38.3,74.803,38.399,74.741,38.61z"/>
	<path fill="#506A58" d="M73.774,43.895c0-0.074-0.038-0.124-0.087-0.124c-0.062,0-0.137,0.075-0.211,0.211
		c-0.003,0.006-0.008,0.016-0.012,0.024c-0.057,0.378-0.096,0.712-0.113,0.986c0.184-0.387,0.312-0.734,0.373-0.886
		C73.762,44.019,73.774,43.957,73.774,43.895z"/>
	<path fill="#506A58" d="M76.267,43.758c0.05,0,0.087,0.05,0.087,0.136c0,0.05-0.012,0.125-0.049,0.211
		c-0.058,0.144-0.19,0.462-0.38,0.824c-0.008,0.117-0.019,0.234-0.019,0.342c0,0.782,0.248,1.303,0.993,1.303
		c0.521,0,0.942-0.385,1.265-1.055c-0.074,0.434-0.136,0.844-0.186,1.216c-1.253,0.769-2.568,1.277-2.568,2.642
		c0,0.682,0.657,1.215,1.266,1.215c0.979,0,1.91-1.079,2.469-4.019c0.633-0.559,1.253-1.315,1.712-2.469
		c0.037-0.099,0.049-0.173,0.049-0.223c0-0.087-0.024-0.124-0.074-0.124c-0.062,0-0.161,0.087-0.223,0.223
		c-0.373,0.769-0.831,1.34-1.327,1.799c0.794-4.552,0.992-4.689,0.992-5.024c0-0.285-0.348-0.484-0.657-0.484
		c-0.211,0-0.41,0.1-0.459,0.31c0,0-0.149,0.658-0.348,1.588c-0.546,2.121-0.794,3.56-1.464,3.56c-0.187,0-0.261-0.174-0.261-0.471
		c0-0.484,0.261-1.65,0.509-2.741c0.148-0.67,0.348-1.303,0.348-1.737c0-0.31-0.372-0.546-0.695-0.546
		c-0.223,0-0.409,0.099-0.446,0.347c-0.191,1.067-0.548,2.318-0.748,3.405c0.002-0.002,0.003-0.004,0.004-0.006
		C76.143,43.833,76.205,43.758,76.267,43.758z M76.391,50.208c-0.05,0-0.087,0-0.124-0.013c-0.187-0.111-0.335-0.272-0.335-0.545
		c0-0.993,1.066-1.588,1.947-2.146C77.779,48.323,77.557,50.208,76.391,50.208z"/>
	<path fill="#506A58" d="M76.305,44.105c0.037-0.086,0.049-0.161,0.049-0.211c0-0.086-0.037-0.136-0.087-0.136
		c-0.062,0-0.124,0.074-0.211,0.223c-0.001,0.002-0.002,0.004-0.004,0.006c-0.061,0.334-0.105,0.65-0.127,0.942
		C76.114,44.568,76.247,44.249,76.305,44.105z"/>
	<path fill="#506A58" d="M35.021,57.495c0.111-0.583,0.297-1.513,0.297-1.749c0-0.372-0.26-0.545-0.533-0.545
		c-0.211,0-0.422,0.111-0.508,0.297c-0.348,0.955-0.781,1.898-1.364,1.898c-0.533,0-0.744-0.645-0.744-1.563
		c0-2.208,1.302-6.003,2.766-6.028c0.087,0.161,0.124,0.36,0.124,0.57c0,0.943-0.744,2.27-0.744,3.151
		c0,0.236,0.31,0.372,0.62,0.372c0.298,0,0.595-0.124,0.62-0.446c0.037-0.546,0.261-1.476,0.261-2.307
		c0-0.683-0.149-1.303-0.707-1.576c-0.1-0.124-0.335-0.21-0.583-0.21c-2.01,0-3.548,3.733-3.548,6.363
		c0,1.427,0.459,2.531,1.538,2.531c0.633,0,1.166-0.67,1.525-1.476c-0.074,0.446-0.174,0.881-0.384,1.798
		c-1.179,0.844-2.369,1.588-2.369,2.717c0,0.571,0.558,0.93,1.066,0.93c0.731,0,1.687-0.756,2.195-2.729l0.31-1.215
		c0.53-0.454,1.037-1.017,1.457-1.773c0.02-0.272,0.058-0.566,0.108-0.875C36.053,56.388,35.562,56.991,35.021,57.495z
		 M32.056,61.837c-0.235,0-0.335-0.224-0.335-0.397c0-0.819,0.993-1.551,1.749-2.096C33.061,61.291,32.453,61.837,32.056,61.837z"/>
	<path fill="#506A58" d="M39.759,57.47c-0.112,0-0.162-0.111-0.162-0.334c0-0.856,1.042-4.33,1.042-4.826
		c0-0.322-0.26-0.508-0.533-0.508c-0.298,0-0.595,0.186-0.682,0.595c-0.559,2.568-1.03,4.962-1.75,4.962
		c-0.186,0-0.272-0.186-0.272-0.521c0-0.806,0.459-2.456,0.855-4.428c0.013-0.037,0.013-0.087,0.013-0.124
		c0-0.298-0.261-0.459-0.533-0.459c-0.285,0-0.607,0.174-0.67,0.558c-0.172,1.034-0.474,2.214-0.643,3.244
		c0.003-0.006,0.008-0.012,0.011-0.019c0.062-0.137,0.148-0.199,0.211-0.199c0.05,0,0.087,0.038,0.087,0.124
		c0,0.05-0.025,0.124-0.05,0.199c-0.112,0.278-0.236,0.532-0.367,0.77c-0.01,0.127-0.019,0.254-0.019,0.372
		c0,0.794,0.236,1.327,0.931,1.327c0.509,0,0.918-0.397,1.253-1.042c0.025,0.843,0.472,1.042,0.844,1.042
		c0.727,0,1.338-0.988,1.7-1.734c0.003-0.271,0.028-0.561,0.073-0.858C40.961,55.883,40.205,57.47,39.759,57.47z"/>
	<path fill="#506A58" d="M36.732,55.535c0-0.086-0.037-0.124-0.087-0.124c-0.062,0-0.149,0.062-0.211,0.199
		c-0.003,0.007-0.008,0.013-0.011,0.019c-0.051,0.308-0.089,0.602-0.108,0.875c0.131-0.237,0.255-0.492,0.367-0.77
		C36.707,55.659,36.732,55.585,36.732,55.535z"/>
	<path fill="#506A58" d="M44.521,57.47c-0.112,0-0.174-0.124-0.174-0.31c0-0.596,0.434-1.936,0.769-3.511
		c0.013-0.062,0.013-0.124,0.013-0.186c0-0.459-0.372-0.719-0.683-0.719h-0.074c-0.024-0.385-0.335-0.918-0.831-0.918
		c-1.211,0-2.178,2.02-2.443,3.783l0,0c0.074-0.149,0.149-0.211,0.211-0.211c0.05,0,0.087,0.037,0.087,0.124
		c0,0.05-0.013,0.124-0.05,0.211c-0.052,0.131-0.163,0.41-0.321,0.734c0,0.016-0.001,0.032-0.001,0.047
		c0,0.968,0.285,1.687,0.955,1.687c0.396,0,0.868-0.533,1.277-1.376c-0.013,0.086-0.013,0.173-0.013,0.235
		c0,0.93,0.459,1.141,0.844,1.141c0.582,0,1.1-0.756,1.454-1.445c0.04-0.314,0.096-0.672,0.163-1.055
		C45.146,56.844,44.774,57.47,44.521,57.47z M43.665,54.804c-0.31,1.376-0.855,2.555-1.314,2.555c-0.149,0-0.211-0.236-0.211-0.608
		c0-1.302,0.757-4.205,1.588-4.205c0.298,0,0.335,0.26,0.335,0.471L43.665,54.804z"/>
	<path fill="#506A58" d="M41.396,55.523c0-0.087-0.037-0.124-0.087-0.124c-0.062,0-0.137,0.062-0.211,0.211l0,0
		c-0.045,0.297-0.07,0.586-0.073,0.858c0.158-0.324,0.27-0.603,0.321-0.734C41.383,55.647,41.396,55.573,41.396,55.523z"/>
	<path fill="#506A58" d="M50.363,53.774c-0.211,0.484-0.72,1.389-1.129,1.389c-0.187,0-0.285-0.099-0.285-0.273
		c0-0.434,0.595-1.587,0.595-2.282c0-0.533-0.174-0.806-0.632-0.806c-0.608,0-1.153,0.695-1.601,1.65
		c0.062-0.224,0.211-0.534,0.211-0.745c0-0.347-0.322-0.545-0.607-0.545c-0.211,0-0.409,0.099-0.472,0.31
		c-0.302,1.032-0.562,2.219-0.739,3.23c0.016-0.032,0.029-0.06,0.045-0.092c0.062-0.137,0.161-0.211,0.224-0.211
		c0.037,0,0.074,0.037,0.074,0.124c0,0.05-0.013,0.124-0.05,0.211c-0.067,0.169-0.229,0.583-0.456,1.023
		c-0.05,0.391-0.077,0.715-0.077,0.937c0,0.372,0.235,0.545,0.471,0.545c0.211,0,0.422-0.136,0.459-0.409l0.199-1.315
		c0.322-2.096,1.34-3.87,1.761-3.87c0.087,0,0.124,0.062,0.124,0.149c0,0.385-0.545,1.216-0.545,1.898
		c0,0.744,0.471,0.955,0.967,0.955c0.393,0,0.755-0.236,1.052-0.558c0.11-0.496,0.271-0.991,0.472-1.444
		C50.402,53.683,50.383,53.726,50.363,53.774z"/>
	<path fill="#506A58" d="M46.047,55.523c0-0.087-0.037-0.124-0.074-0.124c-0.062,0-0.161,0.074-0.224,0.211
		c-0.016,0.033-0.029,0.061-0.045,0.092c-0.067,0.383-0.123,0.741-0.163,1.055c0.228-0.441,0.389-0.854,0.456-1.023
		C46.034,55.647,46.047,55.573,46.047,55.523z"/>
	<path fill="#506A58" d="M53.277,57.47c-0.111,0-0.173-0.124-0.173-0.31c0-0.596,0.434-1.936,0.769-3.511
		c0.013-0.062,0.013-0.124,0.013-0.186c0-0.459-0.372-0.719-0.683-0.719h-0.074c-0.024-0.385-0.335-0.918-0.831-0.918
		c-0.758,0-1.419,0.794-1.875,1.819c0.059-0.107,0.121-0.169,0.176-0.169c0.137,0,0.087,0.261,0.062,0.348
		c-0.101,0.383-0.359,0.885-0.71,1.266c-0.109,0.494-0.171,0.985-0.171,1.426c0,0.968,0.285,1.687,0.954,1.687
		c0.397,0,0.869-0.533,1.278-1.376C52,56.912,52,56.999,52,57.061c0,0.93,0.459,1.141,0.844,1.141c0.577,0,1.091-0.744,1.445-1.428
		c0.055-0.377,0.113-0.737,0.18-1.089C53.907,56.838,53.532,57.47,53.277,57.47z M52.422,54.804
		c-0.311,1.376-0.856,2.555-1.315,2.555c-0.148,0-0.211-0.236-0.211-0.608c0-1.302,0.757-4.205,1.588-4.205
		c0.298,0,0.335,0.26,0.335,0.471L52.422,54.804z"/>
	<path fill="#506A58" d="M50.599,53.476c-0.055,0-0.117,0.062-0.176,0.169c-0.201,0.453-0.361,0.948-0.472,1.444
		c0.351-0.381,0.609-0.883,0.71-1.266C50.686,53.737,50.735,53.476,50.599,53.476z"/>
	<path fill="#506A58" d="M57.421,58.239c0.728,0,1.375-0.946,1.766-1.7c0.02-0.259,0.057-0.567,0.108-0.911
		c-0.173,0.295-1.004,1.866-1.539,1.866c-0.137,0-0.199-0.099-0.199-0.26c0-0.757,1.204-2.903,1.204-4.304
		c0-0.459-0.187-1.129-0.918-1.129c-0.646,0-1.278,0.905-1.787,2.071c0.075-0.322,0.285-0.831,0.285-1.153
		c0-0.36-0.31-0.571-0.607-0.571c-0.198,0-0.396,0.1-0.459,0.323c-0.367,1.25-0.616,2.209-0.806,3.213
		c0.013-0.026,0.024-0.049,0.037-0.075c0.062-0.137,0.161-0.211,0.224-0.211c0.037,0,0.074,0.037,0.074,0.124
		c0,0.05-0.013,0.124-0.05,0.211c-0.068,0.171-0.233,0.594-0.465,1.041c-0.037,0.255-0.072,0.517-0.106,0.795
		c0,0.037-0.012,0.074-0.012,0.111c0,0.372,0.285,0.558,0.546,0.558c0.235,0,0.459-0.136,0.508-0.409
		c0.038-0.273,0.087-0.57,0.149-0.918l0.037-0.086c0.483-2.245,1.575-4.168,2.034-4.168c0.137,0,0.198,0.136,0.198,0.297
		c0,0.832-1.19,3.077-1.19,4.193C56.453,57.892,56.924,58.239,57.421,58.239z"/>
	<path fill="#506A58" d="M54.804,55.523c0-0.087-0.037-0.124-0.074-0.124c-0.062,0-0.162,0.074-0.224,0.211
		c-0.013,0.026-0.024,0.049-0.037,0.075c-0.066,0.352-0.125,0.712-0.18,1.089c0.231-0.447,0.396-0.869,0.465-1.041
		C54.791,55.647,54.804,55.573,54.804,55.523z"/>
	<path fill="#506A58" d="M59.542,55.399c0.037,0,0.062,0.025,0.062,0.087c0,0.049-0.012,0.124-0.049,0.223
		c-0.049,0.146-0.179,0.466-0.368,0.831c-0.012,0.144-0.018,0.273-0.018,0.385c0,0.93,0.409,1.277,0.894,1.277
		c0.763,0,1.424-1.089,1.793-1.843c-0.005-0.083-0.007-0.167-0.007-0.253c0-0.154,0.01-0.313,0.023-0.474
		c-0.351,0.571-0.973,1.9-1.45,1.9c-0.186,0-0.261-0.199-0.261-0.521c0-0.894,0.583-2.816,1.055-4.454
		c0.905-0.099,1.364-0.223,1.364-0.396s-0.57-0.211-1.178-0.261c0.136-0.496,0.322-1.042,0.322-1.352c0-0.422-0.335-0.62-0.646-0.62
		c-0.235,0-0.446,0.099-0.508,0.31c-0.162,0.509-0.311,1.042-0.459,1.6c-0.199-0.012-0.397-0.012-0.583-0.012
		c-0.137,0-0.224,0.198-0.224,0.384c0,0.162,0.062,0.323,0.211,0.335l0.396,0.037c-0.268,1.096-0.489,2.183-0.618,3.046
		c0.003-0.005,0.008-0.014,0.011-0.019C59.381,55.486,59.479,55.399,59.542,55.399z"/>
	<path fill="#506A58" d="M59.555,55.709c0.037-0.099,0.049-0.174,0.049-0.223c0-0.062-0.024-0.087-0.062-0.087
		c-0.062,0-0.161,0.087-0.236,0.211c-0.003,0.005-0.008,0.014-0.011,0.019c-0.052,0.344-0.089,0.651-0.108,0.911
		C59.376,56.175,59.506,55.854,59.555,55.709z"/>
	<path fill="#506A58" d="M62.097,55.386c0.05,0,0.087,0.05,0.087,0.137c0,0.05-0.013,0.124-0.05,0.211
		c-0.047,0.116-0.144,0.349-0.278,0.625c0.059,1.072,0.504,1.905,1.493,1.905c1.203,0,2.01-0.806,2.568-1.897
		c0.062,1.042,0.508,1.848,1.476,1.848c1.427,0,2.295-1.092,2.853-2.481c0.025-0.062,0.038-0.124,0.038-0.174
		c0-0.074-0.038-0.124-0.087-0.124c-0.224,0-0.881,2.022-2.332,2.022c-0.583,0-0.807-0.57-0.819-1.327
		c0.187,0.074,0.373,0.112,0.546,0.112c1.278,0,2.146-1.787,2.146-3.052c0-0.657-0.224-1.166-0.744-1.228
		c-0.149-0.124-0.435-0.211-0.707-0.211c-1.229,0-2.245,2.121-2.369,3.932c-0.286,0.571-1.018,1.824-2.097,1.824
		c-0.62,0-0.818-0.633-0.818-1.439c0.037,0,0.062,0,0.1,0c1.735,0.248,2.616-1.724,2.616-2.928c0-0.583-0.248-1.042-0.794-1.104
		c-0.148-0.124-0.434-0.211-0.706-0.211c-1.195,0-2.189,2.025-2.346,3.806c0.004-0.007,0.009-0.016,0.014-0.022
		C61.973,55.461,62.034,55.386,62.097,55.386z M68.77,52.236c0.198,0,0.235,0.236,0.235,0.484c0,1.054-1.017,3.175-1.935,3.051
		C67.182,54.246,68.038,52.236,68.77,52.236z M64.701,52.31c0.211,0,0.248,0.273,0.248,0.521c0,0.993-0.918,2.804-1.935,2.94
		C63.139,54.27,63.981,52.31,64.701,52.31z"/>
	<path fill="#506A58" d="M61.855,56.359c0.135-0.276,0.231-0.509,0.278-0.625c0.037-0.087,0.05-0.161,0.05-0.211
		c0-0.087-0.037-0.137-0.087-0.137c-0.062,0-0.124,0.075-0.211,0.224c-0.005,0.007-0.01,0.016-0.014,0.022
		c-0.014,0.16-0.023,0.319-0.023,0.474C61.849,56.191,61.851,56.276,61.855,56.359z"/>
	<rect x="18.264" y="54.541" fill="#506A58" width="10.188" height="0.598"/>
	<rect x="71.548" y="54.541" fill="#506A58" width="10.188" height="0.598"/>
	<path fill="#506A58" d="M43.092,25.524c0.175-0.08,0.339-0.035,0.5-0.002c0.148,0.029,0.305,0.077,0.427,0.173
		c0.139,0.108,0.271,0.224,0.372,0.377c0.054,0.082,0.062,0.125-0.005,0.198c-0.103,0.113-0.078,0.218,0.059,0.29
		c0.185,0.097,0.357,0.211,0.521,0.337c0.272,0.208,0.322,0.535,0.114,0.799c-0.075,0.094-0.179,0.165-0.265,0.25
		c-0.101,0.098-0.078,0.178,0.058,0.215c0.046,0.012,0.097,0.01,0.145,0.011c0.234,0,0.467,0.021,0.697,0.055
		c0.348,0.053,0.71,0.028,1.042,0.177c0.017,0.007,0.039,0.005,0.059,0.002c0.293-0.039,0.544,0.115,0.815,0.175
		c0.065,0.015,0.129,0.043,0.192,0.067c0.129,0.049,0.207,0.151,0.193,0.28c-0.022,0.198-0.095,0.397-0.248,0.524
		c-0.156,0.129-0.275,0.286-0.407,0.434c-0.06,0.066-0.128,0.159-0.029,0.243c0.087,0.075,0.193,0.046,0.262-0.033
		c0.156-0.181,0.343-0.313,0.562-0.408c0.032-0.014,0.062-0.026,0.097-0.014c0.027,0.01,0.027,0.035,0.027,0.061
		c-0.001,0.155,0.078,0.209,0.223,0.152c0.084-0.034,0.167-0.093,0.253-0.099c0.28-0.019,0.527-0.141,0.789-0.218
		c0.196-0.058,0.393-0.16,0.604-0.136c0.388,0.044,0.681-0.129,0.93-0.391c0.272-0.288,0.539-0.585,0.622-1.018
		c0.062,0.097,0.088,0.181,0.1,0.273c0.01,0.081,0.006,0.171,0.055,0.238c0.131,0.177,0.131,0.397,0.206,0.593
		c0.052,0.135,0.095,0.284,0.122,0.427c0.036,0.185,0.064,0.369,0.138,0.544c0.007,0.017,0.003,0.039,0.003,0.058
		c0,0.226,0.153,0.42,0.135,0.651c-0.001,0.016,0.013,0.038,0.026,0.051c0.092,0.09,0.101,0.206,0.103,0.324
		c0.001,0.048-0.006,0.1,0.024,0.142c0.145,0.197,0.104,0.45,0.203,0.665c0.078,0.167,0.108,0.362,0.186,0.524
		c0.087,0.181,0.111,0.375,0.184,0.558c0.115,0.291,0.174,0.604,0.424,0.817c0.095,0.08,0.134,0.236,0.297,0.226
		c0.075,0,0.151,0,0.227,0c0.052,0.003,0.114,0.027,0.14-0.039c0.024-0.063-0.017-0.109-0.061-0.153
		c-0.078-0.077-0.2-0.061-0.274-0.114c-0.257-0.183-0.499-0.394-0.546-0.732c-0.028-0.199-0.139-0.363-0.188-0.553
		c-0.074-0.288-0.238-0.548-0.283-0.849c-0.011-0.071-0.019-0.15-0.054-0.21c-0.144-0.241-0.17-0.522-0.226-0.781
		c-0.056-0.266-0.151-0.523-0.185-0.799c-0.037-0.306-0.131-0.61-0.213-0.913c-0.099-0.365-0.205-0.729-0.312-1.092
		c-0.025-0.09-0.029-0.114,0.088-0.1c0.15,0.018,0.272,0.107,0.431,0.114c0.27,0.013,0.512-0.105,0.773-0.114
		c0.086-0.003,0.167-0.054,0.186-0.158c0.006-0.004,0.011-0.007,0.018-0.009c0.199-0.01,0.396-0.042,0.555-0.168
		c0.161-0.128,0.324-0.252,0.498-0.362c0.066-0.042,0.176-0.05,0.188-0.16c0.007-0.005,0.013-0.009,0.02-0.012
		c0.066,0.011,0.109-0.03,0.153-0.068c0.251-0.212,0.467-0.463,0.736-0.654c0.256-0.181,0.486-0.398,0.8-0.491
		c0.225-0.066,0.471-0.062,0.674-0.198c0.05-0.033,0.153-0.016,0.146-0.093c-0.007-0.091-0.108-0.08-0.177-0.09
		c-0.062-0.01-0.126-0.004-0.189-0.003c-0.415,0.011-0.823-0.03-1.229-0.116c-0.32-0.067-0.48-0.388-0.29-0.654
		c0.26-0.364,0.385-0.792,0.588-1.182c0.099-0.188,0.183-0.389,0.301-0.568c0.072-0.111,0.129-0.24,0.259-0.307
		c0.172-0.088,0.307-0.22,0.419-0.377c0.031-0.044,0.053-0.088,0.017-0.132c-0.039-0.049-0.1-0.045-0.146-0.014
		c-0.274,0.18-0.581,0.224-0.895,0.18c-0.177-0.025-0.352-0.078-0.476-0.243c-0.104-0.138-0.115-0.297-0.159-0.448
		c-0.05-0.168-0.067-0.339,0.033-0.506c0.076-0.127,0.018-0.227-0.114-0.296c-0.208-0.109-0.249-0.087-0.243-0.357
		c0.004-0.19,0.002-0.38,0.002-0.57c0-0.1,0.025-0.187,0.092-0.269c0.088-0.109,0.189-0.209,0.256-0.335
		c0.016-0.03,0.048-0.073,0.008-0.086c-0.086-0.026-0.2-0.057-0.257,0.024c-0.103,0.146-0.248,0.248-0.354,0.386
		c-0.159,0.206-0.346,0.382-0.547,0.544c-0.096,0.078-0.241,0.078-0.313,0.197c-0.104,0.168-0.268,0.28-0.391,0.432
		c-0.056,0.068-0.145,0.113-0.227,0.153c-0.062,0.031-0.1-0.042-0.15-0.068c-0.063-0.032-0.118-0.012-0.171,0.037
		c-0.191,0.18-0.368,0.367-0.521,0.585c-0.132,0.188-0.232,0.403-0.428,0.547c-0.052,0.039-0.149,0.043-0.149,0.141
		c-0.147,0.088-0.256-0.049-0.386-0.065c-0.012-0.056-0.049-0.097-0.094-0.126c-0.118-0.076-0.194-0.177-0.254-0.307
		c-0.102-0.224-0.229-0.436-0.347-0.652c-0.03-0.055-0.058-0.116-0.135-0.116c-0.003-0.006-0.005-0.012-0.008-0.018
		c-0.032-0.133-0.103-0.238-0.225-0.304c-0.004-0.005-0.008-0.011-0.011-0.017c0.024-0.05,0.008-0.099-0.022-0.137
		c-0.084-0.108-0.109-0.228-0.119-0.364c-0.009-0.133-0.051-0.264-0.088-0.394c-0.014-0.049-0.053-0.1-0.112-0.099
		c-0.04,0-0.066,0.039-0.075,0.079c-0.039,0.163-0.152,0.276-0.264,0.391c-0.037,0.039-0.103,0.066-0.079,0.141l-0.006,0.002
		c-0.047-0.016-0.065,0.004-0.062,0.05c-0.007,0.004-0.013,0.007-0.021,0.009c-0.085-0.043-0.169,0.033-0.256,0
		c-0.184-0.07-0.358-0.153-0.527-0.257c-0.092-0.057-0.188-0.179-0.317-0.103c-0.062,0.037-0.123,0.049-0.187,0.068
		c-0.005-0.004-0.011-0.007-0.017-0.008c0.006-0.039-0.017-0.063-0.04-0.09c-0.148-0.166-0.314-0.321-0.44-0.503
		c-0.122-0.177-0.274-0.201-0.458-0.175c-0.045,0.006-0.109-0.02-0.129,0.04c-0.021,0.064-0.025,0.138,0.035,0.19
		c0.086,0.074,0.106,0.169,0.102,0.276c-0.002,0.048-0.006,0.102,0.011,0.145c0.049,0.121-0.024,0.186-0.104,0.243
		c-0.06,0.041-0.127,0.081-0.195,0.095c-0.165,0.032-0.173,0.149-0.143,0.267c0.091,0.339,0.044,0.687,0.078,1.029
		c0.013,0.123-0.088,0.211-0.189,0.227c-0.194,0.032-0.402,0.107-0.578-0.075c-0.052-0.053-0.139-0.056-0.196,0.014
		c-0.061,0.072-0.014,0.125,0.039,0.175c0.096,0.091,0.216,0.166,0.28,0.275c0.11,0.187,0.197,0.39,0.265,0.599
		c0.048,0.146,0.096,0.296,0.181,0.428c0.198,0.308,0.394,0.619,0.598,0.924c0.077,0.117,0.104,0.234,0.041,0.356
		c-0.078,0.148-0.186,0.24-0.378,0.243c-0.298,0.004-0.591-0.048-0.886-0.063c-0.114-0.006-0.246-0.052-0.348,0.053
		c-0.022,0.002-0.046,0.004-0.069,0.006c-0.016,0.02-0.031,0.041-0.047,0.061c0.016-0.021,0.031-0.041,0.047-0.061
		c-0.1-0.052-0.149,0.006-0.164,0.09c-0.029,0.159-0.109,0.257-0.266,0.307c-0.052,0.016-0.13,0.017-0.15,0.094
		c-0.022,0.007-0.047,0.014-0.069,0.022c-0.288,0.012-0.57,0.113-0.862,0.052c-0.004-0.001-0.009,0.002-0.014,0.004
		c-0.154,0.058-0.317,0.061-0.476,0.046c-0.277-0.026-0.491,0.111-0.709,0.246c-0.024,0.015-0.025,0.039-0.029,0.062
		C42.848,25.502,42.953,25.588,43.092,25.524z M54.838,20.565c0.066,0.035,0.116,0.09,0.19,0.118
		C54.954,20.655,54.904,20.6,54.838,20.565c-0.013-0.074-0.021-0.149-0.045-0.221C54.816,20.416,54.825,20.491,54.838,20.565z
		 M53.227,23.023c-0.002,0.029,0.003,0.056,0.013,0.079C53.229,23.079,53.225,23.052,53.227,23.023L53.227,23.023z M51.828,22.022
		c0.023-0.01,0.048-0.02,0.072-0.03C51.876,22.002,51.852,22.013,51.828,22.022L51.828,22.022z M51.583,27.796
		c-0.067-0.016-0.118-0.04-0.136-0.082C51.465,27.756,51.516,27.78,51.583,27.796z M50.722,21.182
		c0.111,0.094,0.167,0.219,0.219,0.346C50.889,21.401,50.833,21.276,50.722,21.182c-0.005,0.008-0.01,0.017-0.013,0.025
		C50.712,21.199,50.717,21.19,50.722,21.182z M50.16,20.278c0.01,0.001,0.018,0.004,0.024,0.007
		C50.178,20.282,50.17,20.28,50.16,20.278c-0.003,0.017-0.006,0.034-0.009,0.051C50.154,20.312,50.157,20.295,50.16,20.278z
		 M48.624,19.927l0.002-0.002L48.624,19.927L48.624,19.927z M47.87,22.643c-0.053-0.002-0.098,0.011-0.122,0.048
		C47.772,22.654,47.817,22.641,47.87,22.643c0.027-0.001,0.052,0.001,0.068,0.015C47.922,22.645,47.897,22.642,47.87,22.643z
		 M47.619,19.342c0.169,0.122,0.305,0.277,0.44,0.434C47.924,19.619,47.788,19.463,47.619,19.342
		c-0.004-0.012-0.007-0.024-0.011-0.037C47.612,19.317,47.615,19.33,47.619,19.342z M46.25,21.837
		c-0.057-0.027-0.116-0.086-0.128-0.131C46.134,21.75,46.193,21.81,46.25,21.837c0.002,0.05,0.036,0.077,0.067,0.106
		C46.286,21.914,46.252,21.887,46.25,21.837z M47.136,24.507c0.021-0.009,0.042-0.019,0.063-0.027
		C47.178,24.488,47.157,24.498,47.136,24.507L47.136,24.507z M46.558,28.204L46.558,28.204c-0.045-0.033-0.067-0.073-0.064-0.132
		C46.49,28.13,46.513,28.171,46.558,28.204z M45.84,28.043c0.014-0.004,0.026-0.01,0.039-0.015c-0.041-0.1-0.052-0.154-0.017-0.187
		c-0.035,0.033-0.023,0.087,0.018,0.187c0.028,0,0.056,0.001,0.085,0.002c-0.029-0.001-0.057-0.001-0.086-0.002
		C45.866,28.033,45.854,28.039,45.84,28.043L45.84,28.043z M45.308,27.309c-0.009,0.091-0.018,0.182-0.027,0.273
		C45.29,27.491,45.299,27.399,45.308,27.309c-0.003-0.089-0.016-0.177-0.05-0.261C45.292,27.131,45.305,27.219,45.308,27.309z
		 M44.535,26.132c0.031,0.021,0.023,0.052,0.025,0.082C44.559,26.185,44.566,26.153,44.535,26.132
		c-0.006-0.022-0.012-0.045-0.018-0.068C44.523,26.087,44.529,26.11,44.535,26.132z M44.125,25.661L44.125,25.661
		c-0.022-0.021-0.045-0.042-0.067-0.062C44.08,25.619,44.103,25.64,44.125,25.661z"/>
</g>
</svg>
